<svg width="38" height="52" viewBox="0 0 38 52" fill="none" xmlns="http://www.w3.org/2000/svg">
<path d="M9.386 21.644C10.526 21.644 11.6027 21.3653 12.616 20.808C13.6547 20.2507 14.478 19.4907 15.086 18.528L17.062 19.782C16.2513 21.074 15.1493 22.1 13.756 22.86C12.3627 23.62 10.8933 24 9.348 24C7.92933 23.9747 6.65 23.696 5.51 23.164C4.39533 22.6067 3.44533 21.8973 2.66 21.036C1.87467 20.1747 1.26667 19.212 0.836 18.148C0.430667 17.0587 0.228 15.9693 0.228 14.88C0.228 13.6387 0.468667 12.4733 0.95 11.384C1.43133 10.2693 2.07733 9.30667 2.888 8.496C3.724 7.66 4.69933 7.00133 5.814 6.52C6.92867 6.03867 8.10667 5.78533 9.348 5.76C11.02 5.76 12.578 6.19067 14.022 7.052C15.4913 7.91333 16.5933 9.05333 17.328 10.472L17.822 11.422L4.598 19.706C5.18067 20.2633 5.852 20.7193 6.612 21.074C7.39733 21.4287 8.322 21.6187 9.386 21.644ZM2.584 14.88C2.584 15.8173 2.812 16.78 3.268 17.768L14.668 10.662C14.06 9.87667 13.2747 9.256 12.312 8.8C11.3747 8.344 10.3867 8.116 9.348 8.116C8.41067 8.116 7.524 8.306 6.688 8.686C5.87733 9.04067 5.168 9.522 4.56 10.13C3.952 10.738 3.47067 11.46 3.116 12.296C2.76133 13.1067 2.584 13.968 2.584 14.88ZM36.6225 24H34.2665V14.88C34.2665 13.9427 34.0765 13.0687 33.6965 12.258C33.3418 11.422 32.8605 10.7 32.2525 10.092C31.6445 9.45867 30.9225 8.96467 30.0865 8.61C29.2758 8.25533 28.4145 8.078 27.5025 8.078C26.8185 8.078 26.0838 8.21733 25.2985 8.496C24.5132 8.74933 23.7785 9.16733 23.0945 9.75C22.4358 10.3073 21.8785 11.0167 21.4225 11.878C20.9918 12.714 20.7638 13.7273 20.7385 14.918V24H18.3825V14.88C18.4078 13.436 18.6865 12.1567 19.2185 11.042C19.7758 9.902 20.4852 8.952 21.3465 8.192C22.2078 7.40667 23.1705 6.81133 24.2345 6.406C25.3238 5.97533 26.4132 5.76 27.5025 5.76C28.7438 5.76 29.9092 6.00067 30.9985 6.482C32.1132 6.96333 33.0758 7.622 33.8865 8.458C34.7225 9.26867 35.3812 10.2313 35.8625 11.346C36.3438 12.4353 36.5972 13.6133 36.6225 14.88V24Z" fill="white"/>
<path d="M28.614 47.0076C27.474 47.0076 26.3973 46.729 25.384 46.1716C24.3453 45.6143 23.522 44.8543 22.914 43.8916L20.938 45.1456C21.7487 46.4376 22.8507 47.4636 24.244 48.2236C25.6373 48.9836 27.1067 49.3636 28.652 49.3636C30.0707 49.3383 31.35 49.0596 32.49 48.5276C33.6047 47.9703 34.5547 47.261 35.34 46.3996C36.1253 45.5383 36.7333 44.5756 37.164 43.5116C37.5693 42.4223 37.772 41.333 37.772 40.2436C37.772 39.0023 37.5313 37.837 37.05 36.7476C36.5687 35.633 35.9227 34.6703 35.112 33.8596C34.276 33.0236 33.3007 32.365 32.186 31.8836C31.0713 31.4023 29.8933 31.149 28.652 31.1236C26.98 31.1236 25.422 31.5543 23.978 32.4156C22.5087 33.277 21.4067 34.417 20.672 35.8356L20.178 36.7856L33.402 45.0696C32.8193 45.627 32.148 46.083 31.388 46.4376C30.6027 46.7923 29.678 46.9823 28.614 47.0076ZM35.416 40.2436C35.416 41.181 35.188 42.1436 34.732 43.1316L23.332 36.0256C23.94 35.2403 24.7253 34.6196 25.688 34.1636C26.6253 33.7076 27.6133 33.4796 28.652 33.4796C29.5893 33.4796 30.476 33.6696 31.312 34.0496C32.1227 34.4043 32.832 34.8856 33.44 35.4936C34.048 36.1016 34.5293 36.8236 34.884 37.6596C35.2387 38.4703 35.416 39.3316 35.416 40.2436ZM1.3775 49.3636H3.7335V40.2436C3.7335 39.3063 3.9235 38.4323 4.3035 37.6216C4.65817 36.7856 5.1395 36.0636 5.7475 35.4556C6.3555 34.8223 7.0775 34.3283 7.9135 33.9736C8.72417 33.619 9.5855 33.4416 10.4975 33.4416C11.1815 33.4416 11.9162 33.581 12.7015 33.8596C13.4868 34.113 14.2215 34.531 14.9055 35.1136C15.5642 35.671 16.1215 36.3803 16.5775 37.2416C17.0082 38.0776 17.2362 39.091 17.2615 40.2816V49.3636H19.6175V40.2436C19.5922 38.7996 19.3135 37.5203 18.7815 36.4056C18.2242 35.2656 17.5148 34.3156 16.6535 33.5556C15.7922 32.7703 14.8295 32.175 13.7655 31.7696C12.6762 31.339 11.5868 31.1236 10.4975 31.1236C9.25617 31.1236 8.09083 31.3643 7.0015 31.8456C5.88683 32.327 4.92417 32.9856 4.1135 33.8216C3.2775 34.6323 2.61883 35.595 2.1375 36.7096C1.65617 37.799 1.40283 38.977 1.3775 40.2436V49.3636Z" fill="#FE4C08"/>
</svg>
