<svg width="512" height="512" viewBox="0 0 512 512" fill="none" xmlns="http://www.w3.org/2000/svg">
<path d="M320 384V400C320 416.974 313.257 433.252 301.255 445.255C289.253 457.257 272.974 464 256 464C239.026 464 222.748 457.257 210.745 445.255C198.743 433.252 192 416.974 192 400V384M427.68 351.43C402 320 383.87 304 383.87 217.35C383.87 138 343.35 109.73 310 96C305.57 94.18 301.4 90 300.05 85.45C294.2 65.54 277.8 48 256 48C234.2 48 217.79 65.55 212 85.47C210.65 90.07 206.48 94.18 202.05 96C168.66 109.75 128.18 137.92 128.18 217.35C128.13 304 110 320 84.3201 351.43C73.6801 364.45 83.0001 384 101.61 384H410.49C429 384 438.26 364.39 427.68 351.43Z" stroke="white" stroke-width="32" stroke-linecap="round" stroke-linejoin="round"/>
</svg>
