<svg width="256" height="256" viewBox="0 0 256 256" fill="none" xmlns="http://www.w3.org/2000/svg">
<path d="M234.38 210C220.67 185.937 199.261 167.188 173.6 156.77C186.361 147.199 195.787 133.856 200.543 118.631C205.299 103.405 205.144 87.0692 200.1 71.9367C195.056 56.8042 185.378 43.6424 172.438 34.3156C159.498 24.9888 143.951 19.97 128 19.97C112.049 19.97 96.5022 24.9888 83.562 34.3156C70.6219 43.6424 60.9443 56.8042 55.9001 71.9367C50.8559 87.0692 50.7009 103.405 55.457 118.631C60.2131 133.856 69.6392 147.199 82.4 156.77C56.7392 167.188 35.3304 185.937 21.62 210C20.7705 211.366 20.2042 212.889 19.955 214.478C19.7058 216.067 19.7786 217.691 20.1692 219.251C20.5598 220.812 21.2602 222.278 22.2287 223.562C23.1972 224.846 24.4141 225.923 25.807 226.728C27.1998 227.533 28.7403 228.049 30.3368 228.247C31.9333 228.444 33.5532 228.319 35.1002 227.877C36.6472 227.436 38.0898 226.689 39.3421 225.679C40.5944 224.669 41.6309 223.418 42.39 222C60.51 190.68 92.51 172 128 172C163.49 172 195.49 190.69 213.61 222C215.255 224.645 217.865 226.547 220.886 227.304C223.908 228.06 227.106 227.612 229.803 226.053C232.501 224.495 234.486 221.949 235.34 218.953C236.194 215.957 235.85 212.746 234.38 210ZM76 96C76 85.7154 79.0498 75.6617 84.7636 67.1104C90.4774 58.559 98.5987 51.894 108.1 47.9583C117.602 44.0225 128.058 42.9927 138.145 44.9992C148.232 47.0056 157.497 51.9581 164.77 59.2304C172.042 66.5028 176.994 75.7683 179.001 85.8553C181.007 95.9423 179.978 106.398 176.042 115.9C172.106 125.401 165.441 133.523 156.89 139.236C148.338 144.95 138.285 148 128 148C114.214 147.984 100.996 142.5 91.248 132.752C81.4995 123.004 76.0159 109.786 76 96Z" fill="white"/>
</svg>
